<svg xmlns="http://www.w3.org/2000/svg" viewBox="0 0 343.5 235.5" style="enable-background:new 0 0 343.5 235.5" xml:space="preserve"><path d="M15.3 12.9c67 13.1 134.9 30.8 196 62.1 22.7 11.6 47 25.5 64 44.9 2.4 2.8 5.2 6.1 5.2 10 0 1.4-.4 2.6-1.1 3.8-.2.3-.5.5-.7.9-.1.2-.3.3-.5.4.3-.4 5.7-3.9 6.1-4.1 2.6-1.6.2-.2-1.3.3-9 2.9-19.4 2-28.6 1.1-20.2-1.8-40.3-6.1-60-10.7-34.5-8.1-68.7-18-102.6-28.4-10.9-3.4-21.8-6.8-32.6-10.3-1-.3-4.5 2.6-5.4 3.2-.6.4-4.6 3.9-5 3.7 28.8 10.5 57.4 21.7 85.7 33.4 47.6 19.6 96.1 39.8 139.9 67 8.7 5.4 17.3 11.2 24.9 18 4.7 4.2 9.8 9.4 11.5 15.7-.2-.9 10.9-5.1 10.4-6.9-1.4-5.5-5.6-10.1-9.6-13.9-6.3-6.1-13.5-11.2-20.8-15.9-19.9-13.1-41.4-23.9-62.9-34.2-45-21.6-91.2-40.5-137.8-58.4-10.3-4-20.6-7.9-31-11.6-3.5 2.3-7 4.6-10.4 6.9 39.1 12.5 78.4 24.5 118.2 34.6 22.7 5.7 45.8 11.1 69.1 14 11 1.4 22.9 2.7 33.9.4 3.5-.7 6.5-2.1 9.6-4 3.4-2.1 8.5-4.6 10.6-8.3 2-3.7.1-7.7-2.2-10.7-3.5-4.7-7.9-8.7-12.2-12.5-11.2-9.8-23.7-18.1-36.6-25.6-54.8-32.1-117.3-50.5-178.7-64.5-11.5-2.6-23.1-5-34.7-7.3-1.2-.2-4.4 2.5-5.4 3.2-.7.5-4.3 3.9-5 3.7z" style="fill:#f9f5f4"/></svg>